<svg width="1512" height="681" viewBox="0 0 1512 681" fill="none">
<path d="M57.9871 -152.934C80.4811 -245.791 193.951 -230.814 297.923 -267.508C328.415 -267.508 398.796 -272.749 436.385 -293.717C483.373 -319.927 485.872 -293.717 528.361 -175.399C570.849 -57.0818 679.32 -175.399 773.295 -223.326C867.27 -271.252 896.762 -267.508 1040.72 -175.399C1184.68 -83.2914 1186.68 -175.399 1288.16 -175.399C1389.63 -175.399 1379.63 -200.86 1468.61 -175.399C1557.58 -149.939 1565.08 -63.8214 1565.08 118.148C1565.08 300.118 1624.57 139.865 1659.06 255.187C1693.55 370.509 1607.07 410.947 1565.08 514.288C1523.09 617.629 1505.6 652.076 1411.62 622.122C1317.65 592.168 1203.68 544.242 1040.72 544.242C877.767 544.242 872.268 581.684 773.295 652.076C674.322 722.467 565.351 655.82 485.872 544.242C406.394 432.664 297.923 518.032 188.952 544.242C79.9812 570.451 57.9871 518.032 -23.9908 477.594C-105.969 437.157 -105.469 270.164 -107.968 139.865C-110.468 9.56555 35.4932 -60.0772 57.9871 -152.934Z" fill="white" fill-opacity="0.08"/>
</svg>
