<svg width="1512" height="4276" viewBox="0 0 1512 4276" fill="none" xmlns="http://www.w3.org/2000/svg">
<path d="M576.5 306.5C338.5 -145 223.5 143 -72 51.5L-11 17.5C26.3333 22 105.1 35.1 121.5 51.5C137.9 67.9 264.333 24.3333 325.5 0.5L461 51.5L542.5 170.5C695.5 306.5 1077.8 194.7 1127 197.5C1176.2 200.3 1262.83 271.333 1300 306.5C1365.67 506.833 1518.8 931.9 1606 1029.5C1693.2 1127.1 1769 1251.5 1796 1301.5L1470 1882.5C1545.83 1991.17 1686 2233.6 1640 2334C1582.5 2459.5 1541.5 2432.5 1426 2575C1310.5 2717.5 1354.5 2837 1446 3047.5C1537.5 3258 1860.5 3597.5 1860.5 3774C1860.5 3950.5 1823 3978 1656.5 4131C1490 4284 1154 4331.5 301.5 4195.5C73.4843 4159.12 -53.1969 4142.46 -117.09 4137.49C-89.5358 4160.79 -60.6726 4178.87 -41.0175 4188.31C-24.9139 4193.12 -15.7049 4196.04 -21 4195.5C-25.1528 4195.07 -32.1475 4192.57 -41.0175 4188.31C-100.659 4170.49 -254.875 4126.78 -117.09 4137.49C-178.907 4085.22 -234.133 4006.69 -164 3940.5C-48.5 3831.5 284.5 3852.5 468 3849C651.5 3845.5 675 3828.5 943.5 3808C1212 3787.5 1229 3794.5 1300 3774C1371 3753.5 1422.5 3478.5 1330.5 3397C1238.5 3315.5 1072.5 3353 1059 3186.5C1045.5 3020 1038.5 3139 848.5 3118.5C658.5 3098 621 3183 505.5 3231C390 3279 400 3275 169 3353C-15.8 3415.4 -105 3327 -126.5 3275L-238.5 2864C-179.667 2784.67 -47 2625.4 13 2623C88 2620 152 2779 108 2837C64 2895 179 3067.5 213 3067.5C247 3067.5 1038.5 2853.5 1103 2779C1167.5 2704.5 1256 2398.5 1310.5 2279.5C1365 2160.5 1453 1913 1409 1553C1365 1193 1324 1546 1184.5 1644.5L1180.8 1647.11C1044.78 1743.14 1033 1751.45 1144 1913C1256 2076 1123.5 2184.5 1015 2279.5C906.5 2374.5 889 2415.5 848.5 2660C808 2904.5 756.5 2741.5 366 2660C-24.5 2578.5 590 2286.5 756.5 2279.5C923 2272.5 896 2099.5 889 1940C882 1780.5 784 1835 719.5 1801C655 1767 553 1750 366 1716C216.4 1688.8 251.667 1704.67 288 1716C223.5 1793 97.2 1965.3 108 2038.5C121.5 2130 294.5 2076 254 2008C213.5 1940 407 1865.5 621 1835C835 1804.5 478 2239 213 2208.5C-52 2178 57 1872 179 1716C301 1560 396.5 1722.5 719.5 1750C1042.5 1777.5 1246 1352.5 1256 1029.5C1266 706.5 814.5 758 576.5 306.5Z" fill="black" fill-opacity="0.06"/>
</svg>
