<svg width="307" height="390" viewBox="0 0 307 390" fill="none" xmlns="http://www.w3.org/2000/svg">
<path d="M285.23 2.08243L277.39 0.691223L244.273 52.6912L245.448 57.5583L160.396 176.853C155.163 174.549 141.621 169.627 129.313 168.375C97.4587 159.405 86.8129 207.19 84.9774 215.801C83.142 224.413 81.1224 224.156 70.3459 232.219C7.3669 248.102 -1.97469 286.697 1.22689 304.009C10.6284 332.134 45.4738 388.62 109.643 389.556C173.813 390.493 180.219 321.097 175.401 286.282L179.458 280.115L190.712 271.327C229.882 244.392 205.586 209.076 188.541 194.785L267.039 71.3145L270.491 69.3952L306.693 19.3604L302.194 12.8909L298.503 4.36207L293.106 0.923006L285.23 2.08243Z" fill="url(#paint0_linear_23_266)"/>
<defs>
<linearGradient id="paint0_linear_23_266" x1="293.346" y1="1.07586" x2="-15.0242" y2="485.082" gradientUnits="userSpaceOnUse">
<stop stop-color="white" stop-opacity="0.01"/>
<stop offset="1" stop-color="#FFE600" stop-opacity="0.39"/>
</linearGradient>
</defs>
</svg>
