<svg width="1512" height="1082" viewBox="0 0 1512 1082" fill="none" xmlns="http://www.w3.org/2000/svg">
<path d="M1698 535L1262 1L1033.5 137.5L965 281.5L832 352.5L734 486L499.5 246.5L426 83L330.5 1L252.5 137.5L126.25 243.5L9 352.5L-78 486L-241 554L1698 535Z" fill="#FFEDD1" stroke="white"/>
<path d="M353.623 110L328.5 1H353.623C360.117 15.5 382.878 39.5 412 61.5C448.403 89 434.632 110 451.038 137C467.445 164 476.161 140 515.64 159C555.119 178 515.64 216 540.763 249C565.886 282 540.763 292.5 568.45 289.5C596.136 286.5 607.416 289.5 646.895 347C686.374 404.5 736.107 439.5 753.026 447.5C766.562 453.9 758.666 466.5 753.026 472L736.107 502H672.018C662.618 492 636.538 472 607.416 472C578.294 472 554.355 400.667 553.5 382.5H470C470 373.5 535.739 366.6 515.64 347C490.517 322.5 449.724 282.377 431.5 249C417.127 222.676 385.889 221.225 352.152 229.9C320.165 251.907 265.102 289.5 229 289.5C229 289.5 294.255 244.789 352.152 229.9C361.409 223.532 368.733 218.469 373.106 216C388.693 207.2 366.612 141.667 353.623 110Z" fill="#353535"/>
<path d="M1262.84 92.6597C1226.76 68.6594 1251.71 22.7869 1268.7 2.85061L1296.26 28.1986C1310.05 37.9503 1341.68 61.7266 1357.87 78.8173C1378.11 100.181 1380.13 127.369 1412.02 135.964C1443.92 144.559 1406.59 219.287 1453.45 222.345C1490.94 224.791 1530.39 278.473 1545.43 305.008L1517.34 403.889C1487.26 384.056 1421.65 340.024 1399.85 322.568C1372.6 300.747 1365 243.13 1374.27 217.178C1383.53 191.227 1307.95 122.66 1262.84 92.6597Z" fill="#353535"/>
<path opacity="0.11" d="M-206.012 521.998L222.963 1061.66L453.229 928.159L523.608 785.068L657.526 715.815L757.264 583.609L988.61 826.157L1059.96 990.605L1154.38 1073.85L1234.16 938.38L1361.79 834.041L1480.46 726.585L1569.19 594.234L1733.07 528.373L-206.012 521.998Z" fill="#FFECD0" stroke="white" stroke-opacity="0.16"/>
<path opacity="0.11" d="M1133.19 964.061L1156.89 1073.38L1131.77 1073.05C1125.46 1058.47 1103.02 1034.17 1074.19 1011.79C1038.15 983.819 1052.19 963.001 1036.14 935.789C1020.09 908.576 1011.06 932.46 971.833 912.945C932.606 893.43 972.578 855.95 947.89 822.624C923.201 789.298 948.459 779.128 920.735 781.765C893.012 784.403 881.773 781.255 843.049 723.244C804.326 665.232 755.056 629.584 738.242 621.363C724.791 614.787 732.851 602.291 738.563 596.866L755.873 567.09L819.957 567.928C829.225 578.05 855.041 598.39 884.161 598.771C913.28 599.152 921.794 635.6 922.41 653.776L949.846 673.137C949.728 682.136 954.453 705.1 974.293 724.961C999.093 749.788 1002.63 714.331 1038.89 725.807C1075.14 737.282 1082.63 791.885 1115.53 824.818C1148.43 857.751 1134.73 847.071 1115.1 857.815C1099.4 866.411 1120.62 932.227 1133.19 964.061Z" fill="#606060" stroke="black"/>
<path opacity="0.11" d="M223.32 969.995C259.087 994.466 233.534 1040.01 216.286 1059.72L189.062 1034.01C175.402 1024.08 144.089 999.894 128.119 982.593C108.156 960.967 106.499 933.754 74.7178 924.742C42.9367 915.731 81.2441 841.498 34.4249 837.827C-3.03046 834.891 -41.7736 780.697 -56.4633 753.967L-27.0822 655.462C2.73682 675.688 67.7665 720.575 89.3336 738.314C116.292 760.489 123.139 818.201 113.533 844.029C103.928 869.858 178.611 939.408 223.32 969.995Z" fill="#606060" stroke="black"/>
</svg>
