<svg width="493" height="492" viewBox="0 0 493 492" fill="none" xmlns="http://www.w3.org/2000/svg">
<path d="M426.5 80L16.5 159.5L6.5 191L445.5 102.5L426.5 80Z" fill="white" fill-opacity="0.18"/>
<path d="M477.5 324.5L63 406.5L82 427L469 351L477.5 324.5Z" fill="white" fill-opacity="0.18"/>
<path d="M350.5 21.5L66 79L44.5 103.5L384.5 43L350.5 21.5Z" fill="white" fill-opacity="0.18"/>
<path d="M429.5 411.5L131.5 463L155 473.5L414 425L429.5 411.5Z" fill="white" fill-opacity="0.18"/>
<path d="M479 167L0 244L2.5 279.5L486 191.5L479 167Z" fill="white" fill-opacity="0.18"/>
<path d="M493 253L14 330L31.5 363L487 281.5L493 253Z" fill="white" fill-opacity="0.18"/>
<circle cx="246" cy="246" r="246" fill="url(#paint0_linear_22_92)"/>
<defs>
<linearGradient id="paint0_linear_22_92" x1="192" y1="-9.40082e-06" x2="368" y2="613" gradientUnits="userSpaceOnUse">
<stop stop-color="#00D1FF"/>
<stop offset="1" stop-opacity="0"/>
</linearGradient>
</defs>
</svg>
