<svg width="1464" height="2868" viewBox="0 0 1464 2868" fill="none" xmlns="http://www.w3.org/2000/svg">
<rect x="13" y="1120" width="1413" height="778" rx="113" fill="white" fill-opacity="0.09"/>
<path d="M13 2094.05C13 2026.77 71.425 1974.4 138.304 1981.73L350 2004.91H706.5L1293.83 1974.78C1363.21 1971.22 1419.34 2030.52 1411.99 2099.6L1395.27 2256.53C1394.43 2264.49 1394.43 2272.51 1395.27 2280.47L1410.11 2419.81C1418.07 2494.53 1352.24 2556.06 1278.22 2543.08L1114.29 2514.32C1105.13 2512.71 1095.81 2512.24 1086.54 2512.92L760.5 2536.7H469.5L271.251 2514.15C258.184 2512.66 244.958 2513.47 232.168 2516.53L152.31 2535.65C81.2687 2552.66 13 2498.8 13 2425.75V2094.05Z" fill="white" fill-opacity="0.09"/>
<path d="M29 2688.33C29 2623.5 83.4204 2571.97 148.149 2575.49L366 2587.36H722.5L1311.21 2572.34C1377.87 2570.64 1428.36 2632.72 1414.4 2697.92C1411.52 2711.38 1411.49 2725.46 1414.37 2738.92C1428.1 2803.08 1375.86 2862.23 1310.49 2856.52L1116.5 2839.59L776.5 2851.93H485.5L277.402 2840.15C270.813 2839.78 264.205 2839.98 257.652 2840.77L155.365 2852.95C88.1338 2860.96 29 2808.45 29 2740.74V2688.33Z" fill="black" fill-opacity="0.09"/>
<rect width="1464" height="978" rx="106" fill="#D9D9D9" fill-opacity="0.15"/>
</svg>
