<svg width="1400" height="571" viewBox="0 0 1400 571" fill="none" xmlns="http://www.w3.org/2000/svg">
<path d="M0 120.053C0 52.7745 58.425 0.399643 125.304 7.72529L337 30.9136H693.5L1280.83 0.780825C1350.21 -2.77865 1406.34 56.518 1398.99 125.598L1382.27 282.534C1381.43 290.489 1381.43 298.511 1382.27 306.466L1397.11 445.81C1405.07 520.531 1339.24 582.06 1265.22 569.076L1101.29 540.318C1092.13 538.712 1082.81 538.241 1073.54 538.918L747.5 562.701H456.5L258.251 540.146C245.184 538.66 231.958 539.466 219.168 542.528L139.31 561.647C68.2687 578.655 0 524.802 0 451.753V120.053Z" fill="white" fill-opacity="0.09"/>
</svg>
