<svg width="1512" height="1091" viewBox="0 0 1512 1091" fill="none" xmlns="http://www.w3.org/2000/svg">
<path d="M317.5 274L326.456 331.186L392 339L326.456 346.814L317.5 404L308.544 346.814L243 339L308.544 331.186L317.5 274Z" fill="white"/>
<path d="M736 546L741.289 584.271L780 589.5L741.289 594.729L736 633L730.711 594.729L692 589.5L730.711 584.271L736 546Z" fill="white"/>
<path d="M141.5 439L145.166 466.274L172 470L145.166 473.726L141.5 501L137.834 473.726L111 470L137.834 466.274L141.5 439Z" fill="white"/>
<path d="M1427 102L1432.29 140.271L1471 145.5L1432.29 150.729L1427 189L1421.71 150.729L1383 145.5L1421.71 140.271L1427 102Z" fill="white"/>
<path d="M1353 439L1358.29 477.271L1397 482.5L1358.29 487.729L1353 526L1347.71 487.729L1309 482.5L1347.71 477.271L1353 439Z" fill="white"/>
<path d="M526 49L531.289 87.2709L570 92.5L531.289 97.7291L526 136L520.711 97.7291L482 92.5L520.711 87.2709L526 49Z" fill="white"/>
<path d="M84 21L89.2892 59.2709L128 64.5L89.2892 69.7291L84 108L78.7108 69.7291L40 64.5L78.7108 59.2709L84 21Z" fill="white"/>
</svg>
